<?xml version="1.0" encoding="iso-8859-1"?>
<!-- Generator: Adobe Illustrator 19.0.0, SVG Export Plug-In . SVG Version: 6.00 Build 0)  -->
<svg version="1.1" id="Layer_1" xmlns="http://www.w3.org/2000/svg" xmlns:xlink="http://www.w3.org/1999/xlink" x="0px" y="0px"
	 viewBox="0 0 510.929 510.929" style="enable-background:new 0 0 510.929 510.929;" xml:space="preserve">
<g>
	<g>
		<g>
			<path d="M340.262,295.919c-11.797,0-21.333,9.557-21.333,21.333s9.536,21.333,21.333,21.333
				c23.531,0,42.667,19.136,42.667,42.667c0,11.776,9.536,21.333,21.333,21.333c11.797,0,21.333-9.557,21.333-21.333
				C425.596,334.191,387.324,295.919,340.262,295.919z"/>
			<path d="M340.262,359.919c-11.776,0-21.333,9.557-21.333,21.333s9.557,21.333,21.333,21.333c11.776,0,21.333-9.557,21.333-21.333
				S352.038,359.919,340.262,359.919z"/>
			<path d="M254.929,125.252c18.304,0,36.032-2.261,52.885-6.123c-13.333-62.827-35.947-100.544-52.885-100.544
				c-14.144,0-35.84,38.4-49.963,101.227C220.945,123.247,237.67,125.252,254.929,125.252z"/>
			<path d="M156.373,149.668c-31.04-12.203-58.112-30.101-78.272-52.715L65.195,81.999C28.651,122.447,4.779,174.458,0,231.93
				h148.629C149.525,205.412,152.128,177.274,156.373,149.668z"/>
			<path d="M148.713,274.586H0.019c4.693,56.491,27.797,107.712,63.296,147.861l16.747-14.507
				c25.365-23.957,49.088-42.261,76.267-54.123C152.147,328.623,149.566,302.127,148.713,274.586z"/>
			<path d="M164.525,106.807c9.899-42.987,24.405-81.259,43.968-105.131c-41.856,7.723-80.128,25.6-112.213,51.051l13.888,16.085
				C124.205,84.557,142.978,97.314,164.525,106.807z"/>
			<path d="M399.93,68.555l13.205-16.171c-31.211-24.64-68.16-42.24-108.608-50.219c19.776,23.168,34.517,59.925,44.053,103.147
				C368.804,95.925,386.468,83.637,399.93,68.555z"/>
			<path d="M510.929,253.252c0-66.069-25.365-126.165-66.603-171.627L432.358,96.26c-19.904,22.336-46.187,40.064-76.224,52.331
				c2.645,20.117,4.053,41.024,4.757,62.037c-14.741,0.064-28.971,2.304-42.411,6.357c-0.491-19.648-1.643-38.485-3.733-55.787
				c-19.221,4.267-39.253,6.72-59.819,6.72c-19.776,0-39.061-2.24-57.6-6.165c-3.093,21.589-5.205,45.099-5.995,70.165h84.928
				c2.347,0,4.501,0.64,6.613,1.344c-17.173,10.709-32.064,24.747-43.648,41.323h-47.829c0.789,23.211,2.923,45.845,6.208,67.115
				c5.248-0.875,10.645-1.579,16.213-2.112c-0.917,6.677-1.557,13.419-1.557,20.331c0,7.616,0.747,15.019,1.856,22.336
				c-41.899,4.373-69.739,23.616-105.451,57.344l-14.549,12.587c43.989,35.627,99.925,57.067,160.811,57.067
				c19.691,0,39.765-2.837,59.755-7.659c14.763,4.907,30.507,7.659,46.912,7.659c82.325,0,149.333-66.987,149.333-149.333
				c0-16.405-2.752-32.149-7.659-46.933C508.092,292.996,510.929,272.943,510.929,253.252z M361.596,466.586
				c-13.803,0-26.923-2.837-39.04-7.637c-2.688-1.067-5.184-2.389-7.744-3.648c-3.051-1.493-6.059-3.072-8.939-4.843
				c-2.475-1.536-4.885-3.157-7.232-4.885c-2.667-1.963-5.184-4.117-7.659-6.315c-2.133-1.92-4.352-3.755-6.315-5.824
				c-3.029-3.179-5.76-6.635-8.384-10.155c-2.304-3.072-4.331-6.293-6.293-9.6c-1.771-3.008-3.541-6.037-5.013-9.237
				c-1.173-2.517-2.133-5.099-3.093-7.701c-1.323-3.563-2.475-7.189-3.413-10.923c-0.576-2.283-1.195-4.544-1.621-6.869
				c-1.131-6.187-1.92-12.523-1.92-19.029c0-58.816,47.851-106.667,106.667-106.667c6.507,0,12.843,0.789,19.029,1.92
				c2.325,0.427,4.587,1.045,6.869,1.621c3.733,0.939,7.36,2.091,10.923,3.413c2.603,0.96,5.184,1.92,7.701,3.093
				c3.179,1.472,6.187,3.221,9.195,4.992c3.413,2.027,6.72,4.139,9.899,6.528c3.413,2.56,6.784,5.184,9.877,8.149
				c2.091,2.005,3.968,4.245,5.909,6.421c2.155,2.432,4.267,4.907,6.208,7.531c1.749,2.368,3.392,4.821,4.949,7.339
				c1.749,2.816,3.285,5.76,4.757,8.747c1.301,2.603,2.645,5.184,3.733,7.936c4.779,12.096,7.616,25.195,7.616,38.976
				C468.262,418.735,420.412,466.586,361.596,466.586z"/>
		</g>
	</g>
</g>
<g>
</g>
<g>
</g>
<g>
</g>
<g>
</g>
<g>
</g>
<g>
</g>
<g>
</g>
<g>
</g>
<g>
</g>
<g>
</g>
<g>
</g>
<g>
</g>
<g>
</g>
<g>
</g>
<g>
</g>
</svg>
